<svg width="40" height="40" viewBox="0 0 40 40" fill="none" xmlns="http://www.w3.org/2000/svg">
<rect width="40" height="40" rx="20" fill="#FFDCDC"/>
<path d="M20 19.5625C19.0375 19.5625 18.25 19.2562 17.6375 18.6437C17.025 18.0312 16.7188 17.2438 16.7188 16.2812C16.7188 15.3187 17.025 14.5312 17.6375 13.9187C18.25 13.3063 19.0375 13 20 13C20.9625 13 21.75 13.3063 22.3625 13.9187C22.975 14.5312 23.2812 15.3187 23.2812 16.2812C23.2812 17.2438 22.975 18.0312 22.3625 18.6437C21.75 19.2562 20.9625 19.5625 20 19.5625ZM13 26.5844V24.5281C13 23.974 13.1385 23.5 13.4156 23.1062C13.6927 22.7125 14.05 22.4135 14.4875 22.2094C15.4646 21.7719 16.4016 21.4437 17.2984 21.225C18.1953 21.0062 19.0958 20.8969 20 20.8969C20.9042 20.8969 21.801 21.0099 22.6906 21.2359C23.5802 21.462 24.513 21.7879 25.4889 22.2136C25.9454 22.4196 26.3113 22.7183 26.5868 23.1097C26.8623 23.5012 27 23.974 27 24.5281V26.5844H13ZM14.3125 25.2719H25.6875V24.5281C25.6875 24.2948 25.6182 24.0724 25.4797 23.8609C25.3411 23.6495 25.1698 23.4927 24.9656 23.3906C24.0323 22.9385 23.1792 22.6286 22.4062 22.4609C21.6333 22.2932 20.8312 22.2094 20 22.2094C19.1687 22.2094 18.3594 22.2932 17.5719 22.4609C16.7844 22.6286 15.9312 22.9385 15.0125 23.3906C14.8083 23.4927 14.6406 23.6495 14.5094 23.8609C14.3781 24.0724 14.3125 24.2948 14.3125 24.5281V25.2719ZM20 18.25C20.5687 18.25 21.0391 18.0641 21.4109 17.6922C21.7828 17.3203 21.9688 16.85 21.9688 16.2812C21.9688 15.7125 21.7828 15.2422 21.4109 14.8703C21.0391 14.4984 20.5687 14.3125 20 14.3125C19.4313 14.3125 18.9609 14.4984 18.5891 14.8703C18.2172 15.2422 18.0312 15.7125 18.0312 16.2812C18.0312 16.85 18.2172 17.3203 18.5891 17.6922C18.9609 18.0641 19.4313 18.25 20 18.25Z" fill="white"/>
</svg>
