<svg width="50" height="50" viewBox="0 0 50 50" fill="none" xmlns="http://www.w3.org/2000/svg">
<path d="M24.9999 38.9999C23.0866 38.9999 21.2782 38.6324 19.5749 37.8974C17.8716 37.1624 16.3841 36.1591 15.1124 34.8874C13.8407 33.6158 12.8374 32.1283 12.1024 30.4249C11.3674 28.7216 10.9999 26.9133 10.9999 24.9999C10.9999 23.0399 11.3732 21.2083 12.1199 19.5049C12.8666 17.8016 13.8874 16.3199 15.1824 15.0599C16.4774 13.7999 17.9941 12.8083 19.7324 12.0849C21.4707 11.3616 23.3316 10.9999 25.3149 10.9999C27.1582 10.9999 28.9082 11.3091 30.5649 11.9274C32.2216 12.5458 33.6741 13.4033 34.9224 14.4999C36.1707 15.5966 37.1624 16.8974 37.8974 18.4024C38.6324 19.9074 38.9999 21.5583 38.9999 23.3549C38.9999 25.8749 38.2649 27.8641 36.7949 29.3224C35.3249 30.7808 33.3766 31.5099 30.9499 31.5099H28.3249C27.9049 31.5099 27.5432 31.6733 27.2399 31.9999C26.9366 32.3266 26.7849 32.6883 26.7849 33.0849C26.7849 33.5516 26.9541 33.9949 27.2924 34.4149C27.6307 34.8349 27.7999 35.3366 27.7999 35.9199C27.7999 36.5266 27.5141 37.1916 26.9424 37.9149C26.3707 38.6383 25.7232 38.9999 24.9999 38.9999ZM16.8449 25.9099C17.3116 25.9099 17.7199 25.7349 18.0699 25.3849C18.4199 25.0349 18.5949 24.6266 18.5949 24.1599C18.5949 23.6933 18.4199 23.2849 18.0699 22.9349C17.7199 22.5849 17.3116 22.4099 16.8449 22.4099C16.3782 22.4099 15.9699 22.5849 15.6199 22.9349C15.2699 23.2849 15.0949 23.6933 15.0949 24.1599C15.0949 24.6266 15.2699 25.0349 15.6199 25.3849C15.9699 25.7349 16.3782 25.9099 16.8449 25.9099ZM21.2549 19.9599C21.7216 19.9599 22.1299 19.7849 22.4799 19.4349C22.8299 19.0849 23.0049 18.6766 23.0049 18.2099C23.0049 17.7433 22.8299 17.3349 22.4799 16.9849C22.1299 16.6349 21.7216 16.4599 21.2549 16.4599C20.7882 16.4599 20.3799 16.6349 20.0299 16.9849C19.6799 17.3349 19.5049 17.7433 19.5049 18.2099C19.5049 18.6766 19.6799 19.0849 20.0299 19.4349C20.3799 19.7849 20.7882 19.9599 21.2549 19.9599ZM28.7449 19.9599C29.2116 19.9599 29.6199 19.7849 29.9699 19.4349C30.3199 19.0849 30.4949 18.6766 30.4949 18.2099C30.4949 17.7433 30.3199 17.3349 29.9699 16.9849C29.6199 16.6349 29.2116 16.4599 28.7449 16.4599C28.2782 16.4599 27.8699 16.6349 27.5199 16.9849C27.1699 17.3349 26.9949 17.7433 26.9949 18.2099C26.9949 18.6766 27.1699 19.0849 27.5199 19.4349C27.8699 19.7849 28.2782 19.9599 28.7449 19.9599ZM33.3299 25.9099C33.7966 25.9099 34.2049 25.7349 34.5549 25.3849C34.9049 25.0349 35.0799 24.6266 35.0799 24.1599C35.0799 23.6933 34.9049 23.2849 34.5549 22.9349C34.2049 22.5849 33.7966 22.4099 33.3299 22.4099C32.8632 22.4099 32.4549 22.5849 32.1049 22.9349C31.7549 23.2849 31.5799 23.6933 31.5799 24.1599C31.5799 24.6266 31.7549 25.0349 32.1049 25.3849C32.4549 25.7349 32.8632 25.9099 33.3299 25.9099Z" fill="white"/>
</svg>
