<svg width="50" height="50" viewBox="0 0 50 50" fill="none" xmlns="http://www.w3.org/2000/svg">
<path d="M21.3624 30.8749L31.3749 24.4999L21.3624 18.1249V30.8749ZM24.9999 39.4999C22.9499 39.4999 21.0124 39.1062 19.1874 38.3187C17.3624 37.5312 15.7687 36.4562 14.4062 35.0937C13.0437 33.7312 11.9687 32.1374 11.1812 30.3124C10.3937 28.4874 9.99992 26.5499 9.99992 24.4999C9.99992 22.4249 10.3937 20.4749 11.1812 18.6499C11.9687 16.8249 13.0437 15.2374 14.4062 13.8874C15.7687 12.5374 17.3624 11.4687 19.1874 10.6812C21.0124 9.89369 22.9499 9.49994 24.9999 9.49994C27.0749 9.49994 29.0249 9.89369 30.8499 10.6812C32.6749 11.4687 34.2624 12.5374 35.6124 13.8874C36.9624 15.2374 38.0312 16.8249 38.8187 18.6499C39.6062 20.4749 39.9999 22.4249 39.9999 24.4999C39.9999 26.5499 39.6062 28.4874 38.8187 30.3124C38.0312 32.1374 36.9624 33.7312 35.6124 35.0937C34.2624 36.4562 32.6749 37.5312 30.8499 38.3187C29.0249 39.1062 27.0749 39.4999 24.9999 39.4999Z" fill="white"/>
</svg>
