<svg width="52" height="52" viewBox="0 0 52 52" fill="none" xmlns="http://www.w3.org/2000/svg">
<circle cx="26" cy="26" r="26" fill="#DCE7FF"/>
<path d="M26 25.9688C24.625 25.9688 23.5 25.5312 22.625 24.6562C21.75 23.7812 21.3125 22.6562 21.3125 21.2812C21.3125 19.9062 21.75 18.7812 22.625 17.9062C23.5 17.0312 24.625 16.5938 26 16.5938C27.375 16.5938 28.5 17.0312 29.375 17.9062C30.25 18.7812 30.6875 19.9062 30.6875 21.2812C30.6875 22.6562 30.25 23.7812 29.375 24.6562C28.5 25.5312 27.375 25.9688 26 25.9688ZM16 36V33.0625C16 32.2708 16.1979 31.5938 16.5938 31.0312C16.9896 30.4688 17.5 30.0417 18.125 29.75C19.5208 29.125 20.8594 28.6562 22.1406 28.3438C23.4219 28.0312 24.7083 27.875 26 27.875C27.2917 27.875 28.5729 28.0365 29.8438 28.3594C31.1146 28.6823 32.4471 29.1479 33.8413 29.7561C34.4934 30.0504 35.0162 30.4771 35.4097 31.0363C35.8032 31.5954 36 32.2708 36 33.0625V36H16ZM17.875 34.125H34.125V33.0625C34.125 32.7292 34.026 32.4115 33.8281 32.1094C33.6302 31.8073 33.3854 31.5833 33.0938 31.4375C31.7604 30.7917 30.5417 30.349 29.4375 30.1094C28.3333 29.8698 27.1875 29.75 26 29.75C24.8125 29.75 23.6562 29.8698 22.5312 30.1094C21.4062 30.349 20.1875 30.7917 18.875 31.4375C18.5833 31.5833 18.3438 31.8073 18.1562 32.1094C17.9688 32.4115 17.875 32.7292 17.875 33.0625V34.125ZM26 24.0938C26.8125 24.0938 27.4844 23.8281 28.0156 23.2969C28.5469 22.7656 28.8125 22.0938 28.8125 21.2812C28.8125 20.4688 28.5469 19.7969 28.0156 19.2656C27.4844 18.7344 26.8125 18.4688 26 18.4688C25.1875 18.4688 24.5156 18.7344 23.9844 19.2656C23.4531 19.7969 23.1875 20.4688 23.1875 21.2812C23.1875 22.0938 23.4531 22.7656 23.9844 23.2969C24.5156 23.8281 25.1875 24.0938 26 24.0938Z" fill="white"/>
</svg>
