<svg width="26" height="26" viewBox="0 0 26 26" fill="none" xmlns="http://www.w3.org/2000/svg">
<path d="M6 18.875V17.5625H7.75V10.9125C7.75 9.6875 8.11094 8.5901 8.83281 7.62031C9.55469 6.65052 10.5062 6.04167 11.6875 5.79375V5.3125C11.6875 4.94792 11.8151 4.63802 12.0703 4.38281C12.3255 4.1276 12.6354 4 13 4C13.3646 4 13.6745 4.1276 13.9297 4.38281C14.1849 4.63802 14.3125 4.94792 14.3125 5.3125V5.79375C15.4937 6.04167 16.4453 6.65052 17.1672 7.62031C17.8891 8.5901 18.25 9.6875 18.25 10.9125V17.5625H20V18.875H6ZM13 21.5C12.5187 21.5 12.1068 21.3286 11.7641 20.9859C11.4214 20.6432 11.25 20.2312 11.25 19.75H14.75C14.75 20.2312 14.5786 20.6432 14.2359 20.9859C13.8932 21.3286 13.4812 21.5 13 21.5ZM9.0625 17.5625H16.9375V10.9125C16.9375 9.81875 16.5547 8.88906 15.7891 8.12344C15.0234 7.35781 14.0938 6.975 13 6.975C11.9062 6.975 10.9766 7.35781 10.2109 8.12344C9.44531 8.88906 9.0625 9.81875 9.0625 10.9125V17.5625Z" fill="#3C3C3C"/>
</svg>
