<svg width="51" height="50" viewBox="0 0 51 50" fill="none" xmlns="http://www.w3.org/2000/svg">
<path d="M21.65 23.9249C21.9333 23.9249 22.1708 23.8291 22.3625 23.6374C22.5542 23.4458 22.65 23.2083 22.65 22.9249C22.65 22.6416 22.5542 22.4041 22.3625 22.2124C22.1708 22.0208 21.9333 21.9249 21.65 21.9249C21.3667 21.9249 21.1292 22.0208 20.9375 22.2124C20.7458 22.4041 20.65 22.6416 20.65 22.9249C20.65 23.2083 20.7458 23.4458 20.9375 23.6374C21.1292 23.8291 21.3667 23.9249 21.65 23.9249ZM26.075 23.9249C26.3583 23.9249 26.5958 23.8291 26.7875 23.6374C26.9792 23.4458 27.075 23.2083 27.075 22.9249C27.075 22.6416 26.9792 22.4041 26.7875 22.2124C26.5958 22.0208 26.3583 21.9249 26.075 21.9249C25.7917 21.9249 25.5542 22.0208 25.3625 22.2124C25.1708 22.4041 25.075 22.6416 25.075 22.9249C25.075 23.2083 25.1708 23.4458 25.3625 23.6374C25.5542 23.8291 25.7917 23.9249 26.075 23.9249ZM30.325 23.9249C30.6083 23.9249 30.8458 23.8291 31.0375 23.6374C31.2292 23.4458 31.325 23.2083 31.325 22.9249C31.325 22.6416 31.2292 22.4041 31.0375 22.2124C30.8458 22.0208 30.6083 21.9249 30.325 21.9249C30.0417 21.9249 29.8042 22.0208 29.6125 22.2124C29.4208 22.4041 29.325 22.6416 29.325 22.9249C29.325 23.2083 29.4208 23.4458 29.6125 23.6374C29.8042 23.8291 30.0417 23.9249 30.325 23.9249ZM16 34.9999V16.4999C16 16.0999 16.15 15.7499 16.45 15.4499C16.75 15.1499 17.1 14.9999 17.5 14.9999H34.5C34.9 14.9999 35.25 15.1499 35.55 15.4499C35.85 15.7499 36 16.0999 36 16.4999V29.4999C36 29.8999 35.85 30.2499 35.55 30.5499C35.25 30.8499 34.9 30.9999 34.5 30.9999H20L16 34.9999Z" fill="white"/>
</svg>
