<svg width="50" height="50" viewBox="0 0 50 50" fill="none" xmlns="http://www.w3.org/2000/svg">
<path d="M30.9749 23.2624C31.5374 23.2624 32.0155 23.0656 32.4093 22.6718C32.803 22.2781 32.9999 21.7999 32.9999 21.2374C32.9999 20.6749 32.803 20.1968 32.4093 19.8031C32.0155 19.4093 31.5374 19.2124 30.9749 19.2124C30.4124 19.2124 29.9343 19.4093 29.5405 19.8031C29.1468 20.1968 28.9499 20.6749 28.9499 21.2374C28.9499 21.7999 29.1468 22.2781 29.5405 22.6718C29.9343 23.0656 30.4124 23.2624 30.9749 23.2624ZM20.0249 23.2624C20.5874 23.2624 21.0655 23.0656 21.4593 22.6718C21.853 22.2781 22.0499 21.7999 22.0499 21.2374C22.0499 20.6749 21.853 20.1968 21.4593 19.8031C21.0655 19.4093 20.5874 19.2124 20.0249 19.2124C19.4624 19.2124 18.9843 19.4093 18.5905 19.8031C18.1968 20.1968 17.9999 20.6749 17.9999 21.2374C17.9999 21.7999 18.1968 22.2781 18.5905 22.6718C18.9843 23.0656 19.4624 23.2624 20.0249 23.2624ZM25.4999 33.4624C27.1499 33.4624 28.6687 33.0187 30.0562 32.1312C31.4437 31.2437 32.4499 30.0374 33.0749 28.5124H17.9249C18.5749 30.0374 19.5874 31.2437 20.9624 32.1312C22.3374 33.0187 23.8499 33.4624 25.4999 33.4624ZM25.4999 40.2499C23.4249 40.2499 21.4749 39.8562 19.6499 39.0687C17.8249 38.2812 16.2374 37.2124 14.8874 35.8624C13.5374 34.5124 12.4687 32.9249 11.6812 31.0999C10.8937 29.2749 10.4999 27.3249 10.4999 25.2499C10.4999 23.1749 10.8937 21.2249 11.6812 19.3999C12.4687 17.5749 13.5374 15.9874 14.8874 14.6374C16.2374 13.2874 17.8249 12.2187 19.6499 11.4312C21.4749 10.6437 23.4249 10.2499 25.4999 10.2499C27.5749 10.2499 29.5249 10.6437 31.3499 11.4312C33.1749 12.2187 34.7624 13.2874 36.1124 14.6374C37.4624 15.9874 38.5312 17.5749 39.3187 19.3999C40.1062 21.2249 40.4999 23.1749 40.4999 25.2499C40.4999 27.3249 40.1062 29.2749 39.3187 31.0999C38.5312 32.9249 37.4624 34.5124 36.1124 35.8624C34.7624 37.2124 33.1749 38.2812 31.3499 39.0687C29.5249 39.8562 27.5749 40.2499 25.4999 40.2499Z" fill="white"/>
</svg>
