<svg width="51" height="50" viewBox="0 0 51 50" fill="none" xmlns="http://www.w3.org/2000/svg">
<path d="M33.375 34C31.4417 34 29.4708 33.5333 27.4625 32.6C25.4542 31.6667 23.5917 30.3417 21.875 28.625C20.1583 26.9083 18.8333 25.0458 17.9 23.0375C16.9667 21.0292 16.5 19.0583 16.5 17.125C16.5 16.8083 16.6083 16.5417 16.825 16.325C17.0417 16.1083 17.3083 16 17.625 16H21.125C21.3583 16 21.5583 16.0833 21.725 16.25C21.8917 16.4167 22.0083 16.625 22.075 16.875L22.75 20.025C22.7833 20.2583 22.7792 20.4708 22.7375 20.6625C22.6958 20.8542 22.6083 21.0167 22.475 21.15L19.975 23.675C20.4083 24.4083 20.8667 25.0917 21.35 25.725C21.8333 26.3583 22.3667 26.9583 22.95 27.525C23.5667 28.1583 24.2167 28.7375 24.9 29.2625C25.5833 29.7875 26.3 30.25 27.05 30.65L29.425 28.2C29.5917 28.0167 29.7833 27.8917 30 27.825C30.2167 27.7583 30.4333 27.7417 30.65 27.775L33.625 28.425C33.875 28.4917 34.0833 28.625 34.25 28.825C34.4167 29.025 34.5 29.25 34.5 29.5V32.875C34.5 33.1917 34.3917 33.4583 34.175 33.675C33.9583 33.8917 33.6917 34 33.375 34Z" fill="white"/>
</svg>
